<?xml version="1.0" encoding="utf-8"?>
<!-- Generator: Adobe Illustrator 27.7.0, SVG Export Plug-In . SVG Version: 6.00 Build 0)  -->
<svg version="1.1" xmlns="http://www.w3.org/2000/svg" xmlns:xlink="http://www.w3.org/1999/xlink" x="0px" y="0px"
	 viewBox="0 0 3000 3000" style="enable-background:new 0 0 3000 3000;" xml:space="preserve">
<style type="text/css">
	.st0{fill:url(#SVGID_1_);}
	.st1{fill:url(#SVGID_00000030459790907522969540000003258388819982608813_);}
	.st2{fill:#12195E;}
	.st3{display:none;}
	.st4{display:inline;}
	.st5{fill:url(#SVGID_00000181779593063454456500000010346434266992384917_);}
	.st6{fill:url(#SVGID_00000119088447167265039800000001759237599964646534_);}
	.st7{fill:url(#SVGID_00000034074611622620685460000012763560882960203922_);}
	.st8{fill:url(#SVGID_00000058557057274444788920000004893219033390273692_);}
</style>
<g id="stacked">
	<g>
		<g>
			<linearGradient id="SVGID_1_" gradientUnits="userSpaceOnUse" x1="661.8923" y1="1563.0076" x2="2589.2024" y2="997.4649">
				<stop  offset="0" style="stop-color:#00C7FF"/>
				<stop  offset="1" style="stop-color:#004CE9"/>
			</linearGradient>
			<path class="st0" d="M1660.85,998.39l-0.08,0.08c-90.69-103.13-223.06-168.71-370.79-170.46
				c-278.51-3.29-505.38,218.81-507.72,497.33c-2.35,279.06,223.16,506.02,501.68,506.02c239.91,0,440.49-168.4,489.99-393.44
				l268.68,268.68c18.13,18.13,47.52,18.13,65.64,0l97.58-97.58c18.13-18.13,18.13-47.52,0-65.64L1660.85,998.39z M1283.94,1600.53
				c-149.59,0-270.86-121.27-270.86-270.88c0-149.59,121.27-270.86,270.86-270.86c149.59,0,270.86,121.27,270.86,270.86
				C1554.81,1479.26,1433.54,1600.53,1283.94,1600.53z"/>
		</g>
		<g>
			
				<linearGradient id="SVGID_00000174586226652804820570000018173934831799812520_" gradientUnits="userSpaceOnUse" x1="626.0873" y1="1487.5377" x2="2570.6531" y2="916.9315">
				<stop  offset="0" style="stop-color:#00A4FF"/>
				<stop  offset="1" style="stop-color:#004CE9"/>
			</linearGradient>
			<path style="fill:url(#SVGID_00000174586226652804820570000018173934831799812520_);" d="M1867.04,1135.09l112.88,112.88
				c12.87,12.87,33.73,12.87,46.59,0l193.14-193.14c12.87-12.87,12.87-33.73,0-46.59l-112.88-112.88
				c-12.87-12.87-33.73-12.87-46.59,0l-193.14,193.14C1854.17,1101.37,1854.17,1122.23,1867.04,1135.09z"/>
		</g>
		<g>
			<path class="st2" d="M881.96,1940.57h34.75l97.24,225.72h-45.91L947,2114.65h-97.88l-20.4,51.65h-44.95L881.96,1940.57z
				 M932.97,2080.21l-34.75-91.82l-35.39,91.82H932.97z"/>
			<path class="st2" d="M1039.13,1940.57h78.43c10.84,0,21.31,1.01,31.4,3.03c10.09,2.02,19.07,5.47,26.94,10.36
				c7.86,4.89,14.13,11.48,18.81,19.77c4.67,8.29,7.01,18.81,7.01,31.56c0,16.58-4.52,30.34-13.55,41.29
				c-9.04,10.95-21.95,17.59-38.74,19.93l59.94,99.79h-48.46l-52.28-95.64h-29.33v95.64h-40.17V1940.57z M1110.54,2036.22
				c5.74,0,11.48-0.26,17.22-0.8c5.74-0.53,11-1.8,15.78-3.83c4.78-2.02,8.66-5.1,11.64-9.25c2.97-4.14,4.46-9.93,4.46-17.37
				c0-6.59-1.38-11.9-4.14-15.94c-2.76-4.03-6.38-7.06-10.84-9.09c-4.46-2.02-9.4-3.35-14.83-3.99c-5.42-0.64-10.68-0.96-15.78-0.96
				h-34.75v61.21H1110.54z"/>
			<path class="st2" d="M1394.92,1993.5c-8.29-8.93-16.31-14.87-24.07-17.85c-7.76-2.97-15.57-4.46-23.43-4.46
				c-11.69,0-22.27,2.07-31.72,6.22c-9.46,4.14-17.59,9.88-24.39,17.22c-6.81,7.33-12.07,15.89-15.78,25.66
				c-3.72,9.78-5.58,20.3-5.58,31.56c0,12.11,1.86,23.27,5.58,33.47c3.72,10.2,8.98,19.02,15.78,26.46
				c6.8,7.44,14.93,13.29,24.39,17.54c9.45,4.25,20.03,6.38,31.72,6.38c9.14,0,18.01-2.18,26.62-6.53
				c8.61-4.35,16.63-11.32,24.07-20.88l33.16,23.59c-10.2,14.03-22.64,24.23-37.3,30.61c-14.67,6.38-30.29,9.56-46.87,9.56
				c-17.43,0-33.43-2.82-47.98-8.45c-14.56-5.63-27.1-13.6-37.62-23.91c-10.52-10.31-18.76-22.69-24.71-37.14
				c-5.95-14.45-8.93-30.5-8.93-48.14c0-18.06,2.97-34.48,8.93-49.26c5.95-14.77,14.19-27.36,24.71-37.78
				c10.52-10.41,23.06-18.44,37.62-24.07c14.56-5.63,30.55-8.45,47.98-8.45c15.3,0,29.43,2.71,42.4,8.13
				c12.96,5.42,25.19,14.61,36.66,27.58L1394.92,1993.5z"/>
			<path class="st2" d="M1531.37,1940.57h34.75l97.24,225.72h-45.91l-21.04-51.65h-97.88l-20.4,51.65h-44.95L1531.37,1940.57z
				 M1582.38,2080.21l-34.75-91.82l-35.39,91.82H1582.38z"/>
			<path class="st2" d="M1688.54,1940.57h88.95c14.87,0,29.22,2.29,43.04,6.85c13.81,4.57,26.03,11.53,36.66,20.88
				c10.62,9.36,19.13,21.1,25.51,35.23c6.38,14.14,9.56,30.77,9.56,49.89c0,19.34-3.67,36.08-11,50.21
				c-7.33,14.14-16.79,25.82-28.38,35.07c-11.59,9.25-24.44,16.16-38.58,20.72c-14.14,4.57-28.01,6.85-41.6,6.85h-84.17V1940.57z
				 M1758.68,2129.95c12.54,0,24.39-1.43,35.55-4.3c11.16-2.87,20.88-7.33,29.17-13.39c8.29-6.06,14.82-13.92,19.61-23.59
				c4.78-9.67,7.17-21.41,7.17-35.23c0-13.6-2.13-25.29-6.38-35.07c-4.25-9.77-10.15-17.69-17.69-23.75
				c-7.55-6.06-16.47-10.52-26.78-13.39c-10.31-2.87-21.63-4.3-33.95-4.3h-36.66v153.03H1758.68z"/>
			<path class="st2" d="M1929.56,1940.57h40.17v225.72h-40.17V1940.57z"/>
			<path class="st2" d="M2092.15,1940.57h34.75l97.24,225.72h-45.91l-21.04-51.65h-97.88l-20.4,51.65h-44.95L2092.15,1940.57z
				 M2143.16,2080.21l-34.75-91.82l-35.39,91.82H2143.16z"/>
		</g>
	</g>
</g>
<g id="primary" class="st3">
	<g class="st4">
		<g>
			
				<linearGradient id="SVGID_00000023979777923780414650000015432840871151165845_" gradientUnits="userSpaceOnUse" x1="434.2688" y1="1573.5322" x2="1041.6053" y2="1395.3177">
				<stop  offset="0" style="stop-color:#00C7FF"/>
				<stop  offset="1" style="stop-color:#004CE9"/>
			</linearGradient>
			<path style="fill:url(#SVGID_00000023979777923780414650000015432840871151165845_);" d="M749.06,1395.61l-0.02,0.02
				c-28.58-32.5-70.29-53.17-116.84-53.71c-87.77-1.04-159.26,68.95-159.99,156.72c-0.74,87.94,70.32,159.46,158.09,159.46
				c75.6,0,138.81-53.06,154.41-123.98l84.67,84.67c5.71,5.71,14.97,5.71,20.69,0l30.75-30.75c5.71-5.71,5.71-14.97,0-20.69
				L749.06,1395.61z M630.29,1585.36c-47.14,0-85.35-38.21-85.35-85.36c0-47.14,38.21-85.35,85.35-85.35
				c47.14,0,85.35,38.21,85.35,85.35C715.64,1547.14,677.43,1585.36,630.29,1585.36z"/>
		</g>
		<g>
			
				<linearGradient id="SVGID_00000022525450582731467260000012294906383076364726_" gradientUnits="userSpaceOnUse" x1="422.448" y1="1549.908" x2="1035.9602" y2="1369.8812">
				<stop  offset="0" style="stop-color:#00A4FF"/>
				<stop  offset="1" style="stop-color:#004CE9"/>
			</linearGradient>
			<path style="fill:url(#SVGID_00000022525450582731467260000012294906383076364726_);" d="M813.89,1438.54l35.86,35.86
				c3.98,3.98,10.42,3.98,14.4,0l61.15-61.15c3.98-3.98,3.98-10.42,0-14.4L889.44,1363c-3.98-3.98-10.42-3.98-14.4,0l-61.15,61.15
				C809.92,1428.12,809.92,1434.57,813.89,1438.54z"/>
		</g>
		<g>
			<path class="st2" d="M1053.65,1377.2h38.17l106.8,247.91h-50.42l-23.11-56.73h-107.5l-22.41,56.73H945.8L1053.65,1377.2z
				 M1109.67,1530.57l-38.17-100.85l-38.87,100.85H1109.67z"/>
			<path class="st2" d="M1226.27,1377.2h86.14c11.9,0,23.4,1.11,34.49,3.33c11.09,2.22,20.95,6.01,29.59,11.38
				c8.63,5.37,15.52,12.61,20.66,21.71c5.13,9.1,7.7,20.66,7.7,34.67c0,18.21-4.96,33.33-14.88,45.35
				c-9.93,12.03-24.11,19.32-42.54,21.89l65.83,109.6h-53.22l-57.43-105.05h-32.22v105.05h-44.12V1377.2z M1304.71,1482.25
				c6.3,0,12.61-0.29,18.91-0.88c6.3-0.58,12.08-1.98,17.33-4.2c5.25-2.22,9.51-5.6,12.78-10.16c3.27-4.55,4.9-10.91,4.9-19.08
				c0-7.23-1.52-13.07-4.55-17.51c-3.04-4.43-7-7.76-11.9-9.98c-4.9-2.22-10.33-3.68-16.28-4.38c-5.95-0.7-11.73-1.05-17.33-1.05
				h-38.17v67.23H1304.71z"/>
			<path class="st2" d="M1617.05,1435.33c-9.1-9.8-17.92-16.34-26.44-19.61c-8.52-3.27-17.1-4.9-25.74-4.9
				c-12.84,0-24.46,2.28-34.84,6.83c-10.39,4.55-19.32,10.86-26.79,18.91c-7.47,8.05-13.25,17.45-17.33,28.19
				c-4.09,10.74-6.13,22.3-6.13,34.67c0,13.31,2.04,25.56,6.13,36.77c4.08,11.2,9.86,20.89,17.33,29.06
				c7.47,8.17,16.4,14.59,26.79,19.26c10.38,4.67,22,7,34.84,7c10.03,0,19.78-2.39,29.24-7.18c9.46-4.78,18.26-12.43,26.44-22.94
				l36.42,25.91c-11.2,15.41-24.86,26.61-40.97,33.62c-16.11,7-33.27,10.5-51.47,10.5c-19.14,0-36.71-3.1-52.7-9.28
				c-15.99-6.18-29.76-14.94-41.32-26.26c-11.56-11.32-20.61-24.92-27.14-40.79c-6.54-15.87-9.8-33.5-9.8-52.88
				c0-19.84,3.27-37.87,9.8-54.1c6.53-16.22,15.58-30.05,27.14-41.49c11.56-11.43,25.33-20.25,41.32-26.44
				c15.99-6.18,33.56-9.28,52.7-9.28c16.81,0,32.33,2.98,46.57,8.93c14.24,5.95,27.66,16.05,40.27,30.29L1617.05,1435.33z"/>
			<path class="st2" d="M1766.91,1377.2h38.17l106.8,247.91h-50.42l-23.11-56.73h-107.5l-22.41,56.73h-49.37L1766.91,1377.2z
				 M1822.94,1530.57l-38.17-100.85l-38.87,100.85H1822.94z"/>
			<path class="st2" d="M1939.54,1377.2h97.7c16.34,0,32.09,2.51,47.27,7.53c15.17,5.02,28.59,12.67,40.27,22.94
				c11.67,10.28,21.01,23.17,28.01,38.69c7,15.53,10.5,33.79,10.5,54.8c0,21.24-4.03,39.63-12.08,55.15
				c-8.05,15.53-18.44,28.36-31.17,38.52c-12.72,10.16-26.85,17.74-42.37,22.76c-15.53,5.02-30.76,7.53-45.69,7.53h-92.44V1377.2z
				 M2016.58,1585.2c13.77,0,26.79-1.57,39.04-4.73c12.26-3.15,22.94-8.05,32.04-14.71c9.1-6.65,16.28-15.29,21.54-25.91
				c5.25-10.62,7.88-23.51,7.88-38.69c0-14.94-2.34-27.78-7-38.52c-4.67-10.73-11.15-19.43-19.43-26.09
				c-8.29-6.65-18.09-11.56-29.41-14.71c-11.33-3.15-23.76-4.73-37.29-4.73h-40.27v168.08H2016.58z"/>
			<path class="st2" d="M2204.26,1377.2h44.12v247.91h-44.12V1377.2z"/>
			<path class="st2" d="M2382.84,1377.2h38.17l106.8,247.91h-50.42l-23.11-56.73h-107.5l-22.41,56.73h-49.37L2382.84,1377.2z
				 M2438.87,1530.57l-38.17-100.85l-38.87,100.85H2438.87z"/>
		</g>
	</g>
</g>
<g id="_x32_00px" class="st3">
	<g class="st4">
		<g>
			
				<linearGradient id="SVGID_00000121279524403477233480000015262533314062047886_" gradientUnits="userSpaceOnUse" x1="1381.7438" y1="1532.5995" x2="1650.9979" y2="1453.5906">
				<stop  offset="0" style="stop-color:#00C7FF"/>
				<stop  offset="1" style="stop-color:#004CE9"/>
			</linearGradient>
			<path style="fill:url(#SVGID_00000121279524403477233480000015262533314062047886_);" d="M1521.3,1453.72l-0.01,0.01
				c-12.67-14.41-31.16-23.57-51.8-23.81c-38.91-0.46-70.6,30.57-70.93,69.48c-0.33,38.99,31.18,70.69,70.09,70.69
				c33.52,0,61.54-23.53,68.45-54.97l37.54,37.54c2.53,2.53,6.64,2.53,9.17,0l13.63-13.63c2.53-2.53,2.53-6.64,0-9.17
				L1521.3,1453.72z M1468.65,1537.84c-20.9,0-37.84-16.94-37.84-37.84c0-20.9,16.94-37.84,37.84-37.84
				c20.9,0,37.84,16.94,37.84,37.84C1506.49,1520.9,1489.55,1537.84,1468.65,1537.84z"/>
		</g>
		<g>
			
				<linearGradient id="SVGID_00000072993709228397626420000005357256652670311861_" gradientUnits="userSpaceOnUse" x1="1372.1104" y1="1523.415" x2="1650.1296" y2="1441.8341">
				<stop  offset="0" style="stop-color:#00A4FF"/>
				<stop  offset="1" style="stop-color:#004CE9"/>
			</linearGradient>
			<path style="fill:url(#SVGID_00000072993709228397626420000005357256652670311861_);" d="M1548.87,1471.58l18.24,18.24
				c1.11,1.11,2.92,1.11,4.03,0l29.46-29.46c1.11-1.11,1.11-2.92,0-4.03l-18.24-18.24c-1.11-1.11-2.92-1.11-4.03,0l-29.46,29.46
				C1547.76,1468.66,1547.76,1470.47,1548.87,1471.58z"/>
		</g>
	</g>
</g>
</svg>
