<svg width="24" height="24" viewBox="0 0 24 24" fill="none" xmlns="http://www.w3.org/2000/svg">
<g clip-path="url(#clip0_900_46458)">
<path d="M6 9.5C6 10.3284 5.32843 11 4.5 11C3.67157 11 3 10.3284 3 9.5C3 8.67157 3.67157 8 4.5 8C5.32843 8 6 8.67157 6 9.5Z" stroke="#00385F" stroke-width="2"/>
<path d="M10.5 5.5C10.5 6.32843 9.82843 7 9 7C8.17157 7 7.5 6.32843 7.5 5.5C7.5 4.67157 8.17157 4 9 4C9.82843 4 10.5 4.67157 10.5 5.5Z" stroke="#00385F" stroke-width="2"/>
<path d="M16.5 5.5C16.5 6.32843 15.8284 7 15 7C14.1716 7 13.5 6.32843 13.5 5.5C13.5 4.67157 14.1716 4 15 4C15.8284 4 16.5 4.67157 16.5 5.5Z" stroke="#00385F" stroke-width="2"/>
<path d="M21 9.5C21 10.3284 20.3284 11 19.5 11C18.6716 11 18 10.3284 18 9.5C18 8.67157 18.6716 8 19.5 8C20.3284 8 21 8.67157 21 9.5Z" stroke="#00385F" stroke-width="2"/>
<path d="M16.5791 15.5089L16.6048 15.5391L16.6328 15.5671C16.7136 15.6479 16.7936 15.7275 16.8728 15.8062C17.4707 16.4007 18.0176 16.9445 18.4236 17.5458C18.8483 18.1748 19.0541 18.7777 18.97 19.4468C18.7401 20.1877 18.237 20.8092 17.4277 20.9982C17.4146 20.9995 17.373 21.0029 17.2918 21.0014C17.1899 20.9996 17.0581 20.991 16.891 20.9749C16.6067 20.9475 16.2698 20.9036 15.8706 20.8515C15.7942 20.8415 15.7156 20.8313 15.6347 20.8208C14.6488 20.693 13.3902 20.54 12.0799 20.54H11.8999C10.5885 20.54 9.32893 20.6958 8.34388 20.8247C8.27283 20.834 8.2036 20.8431 8.13614 20.852C7.72502 20.9061 7.37971 20.9515 7.09008 20.979C6.92373 20.9948 6.79315 21.003 6.69298 21.0042C6.60753 21.0053 6.56809 21.001 6.56071 21.0002C5.74399 20.8132 5.24041 20.197 5.01059 19.4501C4.93032 18.7865 5.13738 18.1853 5.56389 17.5561C5.9709 16.9557 6.51773 16.412 7.11478 15.8184C7.1947 15.739 7.27551 15.6586 7.35701 15.5771L7.38302 15.5511L7.40706 15.5232C7.97342 14.8668 8.48083 14.2687 9.00009 13.6567C9.28819 13.3172 9.57993 12.9734 9.88741 12.6128C10.3256 12.11 10.7615 11.7377 11.2042 11.5859L11.213 11.583L11.2216 11.5798C11.2812 11.5581 11.3367 11.5433 11.3888 11.5339L11.3888 11.5339L11.3987 11.532C11.5494 11.503 11.7231 11.5 11.9999 11.5C12.27 11.5 12.4557 11.5022 12.6109 11.5257C12.6601 11.5352 12.7124 11.5495 12.7682 11.5698L12.7768 11.573L12.7856 11.5759C13.2324 11.7291 13.6799 12.1069 14.0987 12.5985L14.0986 12.5985L14.1027 12.6032C14.6645 13.2544 15.162 13.8408 15.6771 14.4479C15.9673 14.7899 16.2631 15.1385 16.5791 15.5089Z" stroke="#00385F" stroke-width="2"/>
</g>
<defs>
<clipPath id="clip0_900_46458">
<rect width="24" height="24" fill="white"/>
</clipPath>
</defs>
</svg>
